<?xml version="1.0" encoding="UTF-8" standalone="no"?><svg xmlns="http://www.w3.org/2000/svg" xmlns:xlink="http://www.w3.org/1999/xlink" contentScriptType="application/ecmascript" contentStyleType="text/css" height="819px" preserveAspectRatio="none" style="width:1492px;height:819px;background:#FFFFFF;" version="1.1" viewBox="0 0 1492 819" width="1492px" zoomAndPan="magnify"><defs><filter height="300%" id="f1gffrcntx55lj" width="300%" x="-1" y="-1"><feGaussianBlur result="blurOut" stdDeviation="2.0"/><feColorMatrix in="blurOut" result="blurOut2" type="matrix" values="0 0 0 0 0 0 0 0 0 0 0 0 0 0 0 0 0 0 .4 0"/><feOffset dx="4.0" dy="4.0" in="blurOut2" result="blurOut3"/><feBlend in="SourceGraphic" in2="blurOut3" mode="normal"/></filter></defs><g><!--MD5=[e2a75efa8a0f57c2afae8bf75386f79c]
cluster views--><polygon fill="#FFFFFF" filter="url(#f1gffrcntx55lj)" points="634.5,79,686.5,79,693.5,101.2969,978.5,101.2969,978.5,194,634.5,194,634.5,79" style="stroke:#000000;stroke-width:1.5;"/><line style="stroke:#000000;stroke-width:1.5;" x1="634.5" x2="693.5" y1="101.2969" y2="101.2969"/><text fill="#000000" font-family="sans-serif" font-size="14" font-weight="bold" lengthAdjust="spacing" textLength="46" x="638.5" y="93.9951">views</text><!--MD5=[f4e70ef68289585296b9045165e58692]
cluster controllers--><polygon fill="#FFFFFF" filter="url(#f1gffrcntx55lj)" points="584.5,279,676.5,279,683.5,301.2969,995.5,301.2969,995.5,394,584.5,394,584.5,279" style="stroke:#000000;stroke-width:1.5;"/><line style="stroke:#000000;stroke-width:1.5;" x1="584.5" x2="683.5" y1="301.2969" y2="301.2969"/><text fill="#000000" font-family="sans-serif" font-size="14" font-weight="bold" lengthAdjust="spacing" textLength="86" x="588.5" y="293.9951">controllers</text><!--MD5=[07ef9424536f13107ccaabb0622252fc]
cluster use_cases--><polygon fill="#FFFFFF" filter="url(#f1gffrcntx55lj)" points="578.5,434,666.5,434,673.5,456.2969,1012.5,456.2969,1012.5,549,578.5,549,578.5,434" style="stroke:#000000;stroke-width:1.5;"/><line style="stroke:#000000;stroke-width:1.5;" x1="578.5" x2="673.5" y1="456.2969" y2="456.2969"/><text fill="#000000" font-family="sans-serif" font-size="14" font-weight="bold" lengthAdjust="spacing" textLength="82" x="582.5" y="448.9951">use_cases</text><!--MD5=[994ddf4055650bf1b26cc3f68529a94f]
cluster business_logic--><polygon fill="#FFFFFF" filter="url(#f1gffrcntx55lj)" points="223.5,634,344.5,634,351.5,656.2969,462.5,656.2969,462.5,749,223.5,749,223.5,634" style="stroke:#000000;stroke-width:1.5;"/><line style="stroke:#000000;stroke-width:1.5;" x1="223.5" x2="351.5" y1="656.2969" y2="656.2969"/><text fill="#000000" font-family="sans-serif" font-size="14" font-weight="bold" lengthAdjust="spacing" textLength="115" x="227.5" y="648.9951">business_logic</text><!--MD5=[96f760269fc4f42dc47a24738b17ae1e]
cluster repositories--><polygon fill="#FFFFFF" filter="url(#f1gffrcntx55lj)" points="628.5,634,730.5,634,737.5,656.2969,1032.5,656.2969,1032.5,749,628.5,749,628.5,634" style="stroke:#000000;stroke-width:1.5;"/><line style="stroke:#000000;stroke-width:1.5;" x1="628.5" x2="737.5" y1="656.2969" y2="656.2969"/><text fill="#000000" font-family="sans-serif" font-size="14" font-weight="bold" lengthAdjust="spacing" textLength="96" x="632.5" y="648.9951">repositories</text><!--MD5=[ca8b7724d745f5b6b18eac97c68e148d]
class views.ExampleView--><rect codeLine="4" fill="#FEFECE" filter="url(#f1gffrcntx55lj)" height="48" id="views.ExampleView" style="stroke:#A80036;stroke-width:1.5;" width="112" x="677.5" y="122"/><ellipse cx="692.5" cy="138" fill="#ADD1B2" rx="11" ry="11" style="stroke:#A80036;stroke-width:1.0;"/><path d="M695.4688,143.6406 Q694.8906,143.9375 694.25,144.0781 Q693.6094,144.2344 692.9063,144.2344 Q690.4063,144.2344 689.0781,142.5938 Q687.7656,140.9375 687.7656,137.8125 Q687.7656,134.6875 689.0781,133.0313 Q690.4063,131.375 692.9063,131.375 Q693.6094,131.375 694.25,131.5313 Q694.9063,131.6875 695.4688,131.9844 L695.4688,134.7031 Q694.8438,134.125 694.25,133.8594 Q693.6563,133.5781 693.0313,133.5781 Q691.6875,133.5781 691,134.6563 Q690.3125,135.7188 690.3125,137.8125 Q690.3125,139.9063 691,140.9844 Q691.6875,142.0469 693.0313,142.0469 Q693.6563,142.0469 694.25,141.7813 Q694.8438,141.5 695.4688,140.9219 L695.4688,143.6406 Z " fill="#000000"/><text fill="#000000" font-family="sans-serif" font-size="12" lengthAdjust="spacing" textLength="80" x="706.5" y="142.1543">ExampleView</text><line style="stroke:#A80036;stroke-width:1.5;" x1="678.5" x2="788.5" y1="154" y2="154"/><line style="stroke:#A80036;stroke-width:1.5;" x1="678.5" x2="788.5" y1="162" y2="162"/><!--MD5=[29490ff1e7fdf208831b68b3ea2b1904]
class views.PlotSampleView--><rect codeLine="5" fill="#FEFECE" filter="url(#f1gffrcntx55lj)" height="48" id="views.PlotSampleView" style="stroke:#A80036;stroke-width:1.5;" width="130" x="824.5" y="122"/><ellipse cx="839.5" cy="138" fill="#ADD1B2" rx="11" ry="11" style="stroke:#A80036;stroke-width:1.0;"/><path d="M842.4688,143.6406 Q841.8906,143.9375 841.25,144.0781 Q840.6094,144.2344 839.9063,144.2344 Q837.4063,144.2344 836.0781,142.5938 Q834.7656,140.9375 834.7656,137.8125 Q834.7656,134.6875 836.0781,133.0313 Q837.4063,131.375 839.9063,131.375 Q840.6094,131.375 841.25,131.5313 Q841.9063,131.6875 842.4688,131.9844 L842.4688,134.7031 Q841.8438,134.125 841.25,133.8594 Q840.6563,133.5781 840.0313,133.5781 Q838.6875,133.5781 838,134.6563 Q837.3125,135.7188 837.3125,137.8125 Q837.3125,139.9063 838,140.9844 Q838.6875,142.0469 840.0313,142.0469 Q840.6563,142.0469 841.25,141.7813 Q841.8438,141.5 842.4688,140.9219 L842.4688,143.6406 Z " fill="#000000"/><text fill="#000000" font-family="sans-serif" font-size="12" lengthAdjust="spacing" textLength="98" x="853.5" y="142.1543">PlotSampleView</text><line style="stroke:#A80036;stroke-width:1.5;" x1="825.5" x2="953.5" y1="154" y2="154"/><line style="stroke:#A80036;stroke-width:1.5;" x1="825.5" x2="953.5" y1="162" y2="162"/><!--MD5=[2f58cd0bcb97f4c8e5e601b53e48ee46]
class controllers.ExampleController--><rect codeLine="13" fill="#FEFECE" filter="url(#f1gffrcntx55lj)" height="48" id="controllers.ExampleController" style="stroke:#A80036;stroke-width:1.5;" width="145" x="628" y="322"/><ellipse cx="643" cy="338" fill="#ADD1B2" rx="11" ry="11" style="stroke:#A80036;stroke-width:1.0;"/><path d="M645.9688,343.6406 Q645.3906,343.9375 644.75,344.0781 Q644.1094,344.2344 643.4063,344.2344 Q640.9063,344.2344 639.5781,342.5938 Q638.2656,340.9375 638.2656,337.8125 Q638.2656,334.6875 639.5781,333.0313 Q640.9063,331.375 643.4063,331.375 Q644.1094,331.375 644.75,331.5313 Q645.4063,331.6875 645.9688,331.9844 L645.9688,334.7031 Q645.3438,334.125 644.75,333.8594 Q644.1563,333.5781 643.5313,333.5781 Q642.1875,333.5781 641.5,334.6563 Q640.8125,335.7188 640.8125,337.8125 Q640.8125,339.9063 641.5,340.9844 Q642.1875,342.0469 643.5313,342.0469 Q644.1563,342.0469 644.75,341.7813 Q645.3438,341.5 645.9688,340.9219 L645.9688,343.6406 Z " fill="#000000"/><text fill="#000000" font-family="sans-serif" font-size="12" lengthAdjust="spacing" textLength="113" x="657" y="342.1543">ExampleController</text><line style="stroke:#A80036;stroke-width:1.5;" x1="629" x2="772" y1="354" y2="354"/><line style="stroke:#A80036;stroke-width:1.5;" x1="629" x2="772" y1="362" y2="362"/><!--MD5=[7a667630785719c9e45e59e5613bf6e4]
class controllers.PlotSampleController--><rect codeLine="14" fill="#FEFECE" filter="url(#f1gffrcntx55lj)" height="48" id="controllers.PlotSampleController" style="stroke:#A80036;stroke-width:1.5;" width="163" x="808" y="322"/><ellipse cx="823" cy="338" fill="#ADD1B2" rx="11" ry="11" style="stroke:#A80036;stroke-width:1.0;"/><path d="M825.9688,343.6406 Q825.3906,343.9375 824.75,344.0781 Q824.1094,344.2344 823.4063,344.2344 Q820.9063,344.2344 819.5781,342.5938 Q818.2656,340.9375 818.2656,337.8125 Q818.2656,334.6875 819.5781,333.0313 Q820.9063,331.375 823.4063,331.375 Q824.1094,331.375 824.75,331.5313 Q825.4063,331.6875 825.9688,331.9844 L825.9688,334.7031 Q825.3438,334.125 824.75,333.8594 Q824.1563,333.5781 823.5313,333.5781 Q822.1875,333.5781 821.5,334.6563 Q820.8125,335.7188 820.8125,337.8125 Q820.8125,339.9063 821.5,340.9844 Q822.1875,342.0469 823.5313,342.0469 Q824.1563,342.0469 824.75,341.7813 Q825.3438,341.5 825.9688,340.9219 L825.9688,343.6406 Z " fill="#000000"/><text fill="#000000" font-family="sans-serif" font-size="12" lengthAdjust="spacing" textLength="131" x="837" y="342.1543">PlotSampleController</text><line style="stroke:#A80036;stroke-width:1.5;" x1="809" x2="970" y1="354" y2="354"/><line style="stroke:#A80036;stroke-width:1.5;" x1="809" x2="970" y1="362" y2="362"/><!--MD5=[5954c69dfd2e190813f650c99c33f1ac]
class use_cases.ExampleInteractor--><rect codeLine="26" fill="#FEFECE" filter="url(#f1gffrcntx55lj)" height="48" id="use_cases.ExampleInteractor" style="stroke:#A80036;stroke-width:1.5;" width="146" x="621.5" y="477"/><ellipse cx="636.5" cy="493" fill="#ADD1B2" rx="11" ry="11" style="stroke:#A80036;stroke-width:1.0;"/><path d="M639.4688,498.6406 Q638.8906,498.9375 638.25,499.0781 Q637.6094,499.2344 636.9063,499.2344 Q634.4063,499.2344 633.0781,497.5938 Q631.7656,495.9375 631.7656,492.8125 Q631.7656,489.6875 633.0781,488.0313 Q634.4063,486.375 636.9063,486.375 Q637.6094,486.375 638.25,486.5313 Q638.9063,486.6875 639.4688,486.9844 L639.4688,489.7031 Q638.8438,489.125 638.25,488.8594 Q637.6563,488.5781 637.0313,488.5781 Q635.6875,488.5781 635,489.6563 Q634.3125,490.7188 634.3125,492.8125 Q634.3125,494.9063 635,495.9844 Q635.6875,497.0469 637.0313,497.0469 Q637.6563,497.0469 638.25,496.7813 Q638.8438,496.5 639.4688,495.9219 L639.4688,498.6406 Z " fill="#000000"/><text fill="#000000" font-family="sans-serif" font-size="12" lengthAdjust="spacing" textLength="114" x="650.5" y="497.1543">ExampleInteractor</text><line style="stroke:#A80036;stroke-width:1.5;" x1="622.5" x2="766.5" y1="509" y2="509"/><line style="stroke:#A80036;stroke-width:1.5;" x1="622.5" x2="766.5" y1="517" y2="517"/><!--MD5=[c6c886b53ba7008b3d4febf33ea00ee0]
class use_cases.LinearFunctionInteractor--><rect codeLine="27" fill="#FEFECE" filter="url(#f1gffrcntx55lj)" height="48" id="use_cases.LinearFunctionInteractor" style="stroke:#A80036;stroke-width:1.5;" width="186" x="802.5" y="477"/><ellipse cx="817.5" cy="493" fill="#ADD1B2" rx="11" ry="11" style="stroke:#A80036;stroke-width:1.0;"/><path d="M820.4688,498.6406 Q819.8906,498.9375 819.25,499.0781 Q818.6094,499.2344 817.9063,499.2344 Q815.4063,499.2344 814.0781,497.5938 Q812.7656,495.9375 812.7656,492.8125 Q812.7656,489.6875 814.0781,488.0313 Q815.4063,486.375 817.9063,486.375 Q818.6094,486.375 819.25,486.5313 Q819.9063,486.6875 820.4688,486.9844 L820.4688,489.7031 Q819.8438,489.125 819.25,488.8594 Q818.6563,488.5781 818.0313,488.5781 Q816.6875,488.5781 816,489.6563 Q815.3125,490.7188 815.3125,492.8125 Q815.3125,494.9063 816,495.9844 Q816.6875,497.0469 818.0313,497.0469 Q818.6563,497.0469 819.25,496.7813 Q819.8438,496.5 820.4688,495.9219 L820.4688,498.6406 Z " fill="#000000"/><text fill="#000000" font-family="sans-serif" font-size="12" lengthAdjust="spacing" textLength="154" x="831.5" y="497.1543">LinearFunctionInteractor</text><line style="stroke:#A80036;stroke-width:1.5;" x1="803.5" x2="987.5" y1="509" y2="509"/><line style="stroke:#A80036;stroke-width:1.5;" x1="803.5" x2="987.5" y1="517" y2="517"/><!--MD5=[b416d3a2a12e1b122c86f8675bc8942f]
class business_logic.ExampleBusinessLogic--><rect codeLine="35" fill="#FEFECE" filter="url(#f1gffrcntx55lj)" height="48" id="business_logic.ExampleBusinessLogic" style="stroke:#A80036;stroke-width:1.5;" width="172" x="266.5" y="677"/><ellipse cx="281.5" cy="693" fill="#ADD1B2" rx="11" ry="11" style="stroke:#A80036;stroke-width:1.0;"/><path d="M284.4688,698.6406 Q283.8906,698.9375 283.25,699.0781 Q282.6094,699.2344 281.9063,699.2344 Q279.4063,699.2344 278.0781,697.5938 Q276.7656,695.9375 276.7656,692.8125 Q276.7656,689.6875 278.0781,688.0313 Q279.4063,686.375 281.9063,686.375 Q282.6094,686.375 283.25,686.5313 Q283.9063,686.6875 284.4688,686.9844 L284.4688,689.7031 Q283.8438,689.125 283.25,688.8594 Q282.6563,688.5781 282.0313,688.5781 Q280.6875,688.5781 280,689.6563 Q279.3125,690.7188 279.3125,692.8125 Q279.3125,694.9063 280,695.9844 Q280.6875,697.0469 282.0313,697.0469 Q282.6563,697.0469 283.25,696.7813 Q283.8438,696.5 284.4688,695.9219 L284.4688,698.6406 Z " fill="#000000"/><text fill="#000000" font-family="sans-serif" font-size="12" lengthAdjust="spacing" textLength="140" x="295.5" y="697.1543">ExampleBusinessLogic</text><line style="stroke:#A80036;stroke-width:1.5;" x1="267.5" x2="437.5" y1="709" y2="709"/><line style="stroke:#A80036;stroke-width:1.5;" x1="267.5" x2="437.5" y1="717" y2="717"/><!--MD5=[3b3eba606361b3f753886be9a641e67f]
class repositories.ExampleRepository--><rect codeLine="45" fill="#FEFECE" filter="url(#f1gffrcntx55lj)" height="48" id="repositories.ExampleRepository" style="stroke:#A80036;stroke-width:1.5;" width="150" x="671.5" y="677"/><ellipse cx="686.5" cy="693" fill="#ADD1B2" rx="11" ry="11" style="stroke:#A80036;stroke-width:1.0;"/><path d="M689.4688,698.6406 Q688.8906,698.9375 688.25,699.0781 Q687.6094,699.2344 686.9063,699.2344 Q684.4063,699.2344 683.0781,697.5938 Q681.7656,695.9375 681.7656,692.8125 Q681.7656,689.6875 683.0781,688.0313 Q684.4063,686.375 686.9063,686.375 Q687.6094,686.375 688.25,686.5313 Q688.9063,686.6875 689.4688,686.9844 L689.4688,689.7031 Q688.8438,689.125 688.25,688.8594 Q687.6563,688.5781 687.0313,688.5781 Q685.6875,688.5781 685,689.6563 Q684.3125,690.7188 684.3125,692.8125 Q684.3125,694.9063 685,695.9844 Q685.6875,697.0469 687.0313,697.0469 Q687.6563,697.0469 688.25,696.7813 Q688.8438,696.5 689.4688,695.9219 L689.4688,698.6406 Z " fill="#000000"/><text fill="#000000" font-family="sans-serif" font-size="12" lengthAdjust="spacing" textLength="118" x="700.5" y="697.1543">ExampleRepository</text><line style="stroke:#A80036;stroke-width:1.5;" x1="672.5" x2="820.5" y1="709" y2="709"/><line style="stroke:#A80036;stroke-width:1.5;" x1="672.5" x2="820.5" y1="717" y2="717"/><!--MD5=[6ad81c5eac7751bd2ce472fdf4561b92]
class repositories.PlotDataRepository--><rect codeLine="46" fill="#FEFECE" filter="url(#f1gffrcntx55lj)" height="48" id="repositories.PlotDataRepository" style="stroke:#A80036;stroke-width:1.5;" width="152" x="856.5" y="677"/><ellipse cx="871.5" cy="693" fill="#ADD1B2" rx="11" ry="11" style="stroke:#A80036;stroke-width:1.0;"/><path d="M874.4688,698.6406 Q873.8906,698.9375 873.25,699.0781 Q872.6094,699.2344 871.9063,699.2344 Q869.4063,699.2344 868.0781,697.5938 Q866.7656,695.9375 866.7656,692.8125 Q866.7656,689.6875 868.0781,688.0313 Q869.4063,686.375 871.9063,686.375 Q872.6094,686.375 873.25,686.5313 Q873.9063,686.6875 874.4688,686.9844 L874.4688,689.7031 Q873.8438,689.125 873.25,688.8594 Q872.6563,688.5781 872.0313,688.5781 Q870.6875,688.5781 870,689.6563 Q869.3125,690.7188 869.3125,692.8125 Q869.3125,694.9063 870,695.9844 Q870.6875,697.0469 872.0313,697.0469 Q872.6563,697.0469 873.25,696.7813 Q873.8438,696.5 874.4688,695.9219 L874.4688,698.6406 Z " fill="#000000"/><text fill="#000000" font-family="sans-serif" font-size="12" lengthAdjust="spacing" textLength="120" x="885.5" y="697.1543">PlotDataRepository</text><line style="stroke:#A80036;stroke-width:1.5;" x1="857.5" x2="1007.5" y1="709" y2="709"/><line style="stroke:#A80036;stroke-width:1.5;" x1="857.5" x2="1007.5" y1="717" y2="717"/><!--MD5=[d26137e5d461602f48e26353ca7979f6]
class app--><rect codeLine="1" fill="#FEFECE" filter="url(#f1gffrcntx55lj)" height="48" id="app" style="stroke:#A80036;stroke-width:1.5;" width="56" x="783.5" y="7"/><ellipse cx="798.5" cy="23" fill="#ADD1B2" rx="11" ry="11" style="stroke:#A80036;stroke-width:1.0;"/><path d="M801.4688,28.6406 Q800.8906,28.9375 800.25,29.0781 Q799.6094,29.2344 798.9063,29.2344 Q796.4063,29.2344 795.0781,27.5938 Q793.7656,25.9375 793.7656,22.8125 Q793.7656,19.6875 795.0781,18.0313 Q796.4063,16.375 798.9063,16.375 Q799.6094,16.375 800.25,16.5313 Q800.9063,16.6875 801.4688,16.9844 L801.4688,19.7031 Q800.8438,19.125 800.25,18.8594 Q799.6563,18.5781 799.0313,18.5781 Q797.6875,18.5781 797,19.6563 Q796.3125,20.7188 796.3125,22.8125 Q796.3125,24.9063 797,25.9844 Q797.6875,27.0469 799.0313,27.0469 Q799.6563,27.0469 800.25,26.7813 Q800.8438,26.5 801.4688,25.9219 L801.4688,28.6406 Z " fill="#000000"/><text fill="#000000" font-family="sans-serif" font-size="12" lengthAdjust="spacing" textLength="24" x="812.5" y="27.1543">app</text><line style="stroke:#A80036;stroke-width:1.5;" x1="784.5" x2="838.5" y1="39" y2="39"/><line style="stroke:#A80036;stroke-width:1.5;" x1="784.5" x2="838.5" y1="47" y2="47"/><path d="M875,18.5 L875,27 L839.85,31 L875,35 L875,43.6328 A0,0 0 0 0 875,43.6328 L1130,43.6328 A0,0 0 0 0 1130,43.6328 L1130,28.5 L1120,18.5 L875,18.5 A0,0 0 0 0 875,18.5 " fill="#FBFB77" filter="url(#f1gffrcntx55lj)" style="stroke:#A80036;stroke-width:1.0;"/><path d="M1120,18.5 L1120,28.5 L1130,28.5 L1120,18.5 " fill="#FBFB77" style="stroke:#A80036;stroke-width:1.0;"/><text fill="#000000" font-family="sans-serif" font-size="13" lengthAdjust="spacing" textLength="234" x="881" y="35.5669">アプリ起動のために実行するモジュール</text><path d="M1003,133.5 L1003,158.6328 L1154,158.6328 L1154,143.5 L1144,133.5 L1003,133.5 " fill="#FBFB77" filter="url(#f1gffrcntx55lj)" style="stroke:#A80036;stroke-width:1.0;"/><path d="M1144,133.5 L1144,143.5 L1154,143.5 L1144,133.5 " fill="#FBFB77" style="stroke:#A80036;stroke-width:1.0;"/><text fill="#000000" font-family="sans-serif" font-size="13" lengthAdjust="spacing" textLength="130" x="1009" y="150.5669">画面のデザインを担当</text><path d="M1020,333.5 L1020,358.6328 L1483,358.6328 L1483,343.5 L1473,333.5 L1020,333.5 " fill="#FBFB77" filter="url(#f1gffrcntx55lj)" style="stroke:#A80036;stroke-width:1.0;"/><path d="M1473,333.5 L1473,343.5 L1483,343.5 L1473,333.5 " fill="#FBFB77" style="stroke:#A80036;stroke-width:1.0;"/><text fill="#000000" font-family="sans-serif" font-size="13" lengthAdjust="spacing" textLength="442" x="1026" y="350.5669">ユースケースへのデータの入力，ユースケースから表示データの取得を担当</text><path d="M385,230 L385,255.1328 L720,255.1328 L720,240 L710,230 L385,230 " fill="#FBFB77" filter="url(#f1gffrcntx55lj)" style="stroke:#A80036;stroke-width:1.0;"/><path d="M710,230 L710,240 L720,240 L710,230 " fill="#FBFB77" style="stroke:#A80036;stroke-width:1.0;"/><text fill="#000000" font-family="sans-serif" font-size="13" lengthAdjust="spacing" textLength="314" x="391" y="247.0669">ここでのデータのやり取りはViewModelを介して行う</text><path d="M1036,481 L1036,521.2656 L1473,521.2656 L1473,491 L1463,481 L1036,481 " fill="#FBFB77" filter="url(#f1gffrcntx55lj)" style="stroke:#A80036;stroke-width:1.0;"/><path d="M1463,481 L1463,491 L1473,491 L1463,481 " fill="#FBFB77" style="stroke:#A80036;stroke-width:1.0;"/><text fill="#000000" font-family="sans-serif" font-size="13" lengthAdjust="spacing" textLength="416" x="1042" y="498.0669">ビジネスユースケースを担当，ソフトウェアで何ができるかを表現する</text><text fill="#000000" font-family="sans-serif" font-size="13" lengthAdjust="spacing" textLength="325" x="1042" y="513.1997">ビジネスロジックやリポジトリを組み合わせて表現する</text><path d="M6,785 L6,810.1328 L399,810.1328 L399,795 L389,785 L6,785 " fill="#FBFB77" filter="url(#f1gffrcntx55lj)" style="stroke:#A80036;stroke-width:1.0;"/><path d="M389,785 L389,795 L399,795 L389,785 " fill="#FBFB77" style="stroke:#A80036;stroke-width:1.0;"/><text fill="#000000" font-family="sans-serif" font-size="13" lengthAdjust="spacing" textLength="372" x="12" y="802.0669">ビジネスロジック, アルゴリズムを表現するオブジェクトが所属</text><path d="M86,585 L86,610.1328 L377,610.1328 L377,595 L367,585 L86,585 " fill="#FBFB77" filter="url(#f1gffrcntx55lj)" style="stroke:#A80036;stroke-width:1.0;"/><path d="M367,585 L367,595 L377,595 L367,585 " fill="#FBFB77" style="stroke:#A80036;stroke-width:1.0;"/><text fill="#000000" font-family="sans-serif" font-size="13" lengthAdjust="spacing" textLength="270" x="92" y="602.0669">複雑なデータはEntityと表現し受け渡しを行う</text><path d="M434,785 L434,810.1328 L897,810.1328 L897,795 L887,785 L434,785 " fill="#FBFB77" filter="url(#f1gffrcntx55lj)" style="stroke:#A80036;stroke-width:1.0;"/><path d="M887,785 L887,795 L897,795 L887,785 " fill="#FBFB77" style="stroke:#A80036;stroke-width:1.0;"/><text fill="#000000" font-family="sans-serif" font-size="13" lengthAdjust="spacing" textLength="442" x="440" y="802.0669">外部とのデータのやり取り，ユースケースにデータを渡すための加工を担当</text><path d="M411.5,585 L411.5,610.1328 L641.5,610.1328 L641.5,595 L631.5,585 L411.5,585 " fill="#FBFB77" filter="url(#f1gffrcntx55lj)" style="stroke:#A80036;stroke-width:1.0;"/><path d="M631.5,585 L631.5,595 L641.5,595 L631.5,585 " fill="#FBFB77" style="stroke:#A80036;stroke-width:1.0;"/><text fill="#000000" font-family="sans-serif" font-size="13" lengthAdjust="spacing" textLength="209" x="417.5" y="602.0669">受け渡しのデータはDTOと表現する</text><!--MD5=[8eb509e93e097eb9077a7c16df5f4de9]
link GMN9 to views--><path d="M1068.37,133.48 C1048.88,110.79 1003.58,64.71 953,59 C922.75,55.59 709.25,55.59 679,59 C671.07,59.89 667.14,57.36 661.5,63 C658.3638,66.135 655.7016,69.675 653.4454,73.482 C652.8814,74.4338 652.3427,75.4022 651.8284,76.3852 C651.5712,76.8767 651.3201,77.3718 651.0749,77.8703 C650.9524,78.1196 650.8313,78.3696 650.7117,78.6205 C650.6519,78.746 650.5924,78.8716 650.5333,78.9975 " fill="none" id="GMN9-views" style="stroke:#A80036;stroke-width:1.0;stroke-dasharray:7.0,7.0;"/><!--MD5=[fa7ee8588878128e30de6af44c2b2a3c]
link app to views.ExampleView--><path codeLine="9" d="M795.53,55.14 C783.01,73.27 765.57,98.54 752.37,117.66 " fill="none" id="app-to-views.ExampleView" style="stroke:#A80036;stroke-width:1.0;"/><polygon fill="#A80036" points="749.45,121.89,757.857,116.7595,752.2923,117.7765,751.2754,112.2118,749.45,121.89" style="stroke:#A80036;stroke-width:1.0;"/><!--MD5=[8c00760b38652116949cb120c5e76bf5]
link app to views.PlotSampleView--><path codeLine="10" d="M827.47,55.14 C839.99,73.27 857.43,98.54 870.63,117.66 " fill="none" id="app-to-views.PlotSampleView" style="stroke:#A80036;stroke-width:1.0;"/><polygon fill="#A80036" points="873.55,121.89,871.7246,112.2118,870.7077,117.7765,865.143,116.7595,873.55,121.89" style="stroke:#A80036;stroke-width:1.0;"/><!--MD5=[98919d1c5c463bc68b8da69cfe8e58fb]
link GMN17 to controllers--><path d="M1223.49,333.47 C1173.72,312.09 1066.07,269.84 970,259 C932.35,254.75 666.65,254.75 629,259 C621.07,259.89 617.14,257.36 611.5,263 C608.3638,266.135 605.7016,269.675 603.4454,273.482 C602.8814,274.4338 602.3427,275.4022 601.8284,276.3852 C601.5712,276.8767 601.3201,277.3718 601.0749,277.8703 C600.9524,278.1196 600.8313,278.3696 600.7117,278.6205 C600.6519,278.746 600.5924,278.8716 600.5333,278.9975 " fill="none" id="GMN17-controllers" style="stroke:#A80036;stroke-width:1.0;stroke-dasharray:7.0,7.0;"/><!--MD5=[8fbcc12123c25e98e02d387f077b2f17]
link views.ExampleView to controllers.ExampleController--><path codeLine="18" d="M737.45,170.42 C740.45,192.46 743.17,226.28 737.5,255 C733.22,276.66 723.67,299.67 715.34,317 " fill="none" id="views.ExampleView-to-controllers.ExampleController" style="stroke:#A80036;stroke-width:1.0;"/><polygon fill="#A80036" points="713.03,321.73,720.5681,315.3915,715.2201,317.2352,713.3764,311.8872,713.03,321.73" style="stroke:#A80036;stroke-width:1.0;"/><!--MD5=[38270f7384b91f02918cf9168db16376]
link views.PlotSampleView to controllers.PlotSampleController--><path codeLine="19" d="M889.5,170.1 C889.5,206.52 889.5,277.17 889.5,316.62 " fill="none" id="views.PlotSampleView-to-controllers.PlotSampleController" style="stroke:#A80036;stroke-width:1.0;"/><polygon fill="#A80036" points="889.5,321.74,893.5,312.74,889.5,316.74,885.5,312.74,889.5,321.74" style="stroke:#A80036;stroke-width:1.0;"/><!--MD5=[b8e12b1e3cd15f962dde58e41f8223d4]
link views to viewmodel--><path codeLine="22" d="M634.3169,155.5913 C634.2355,155.6769 634.1535,155.7629 634.0711,155.8495 C633.9062,156.0227 633.7393,156.1979 633.5704,156.3752 C633.2327,156.7299 632.8872,157.0928 632.5341,157.4636 C626.8844,163.3966 619.3038,171.3569 611.0525,180.0213 C594.55,197.35 575.365,217.495 563.58,229.87 " fill="none" id="views-viewmodel" style="stroke:#A80036;stroke-width:1.0;stroke-dasharray:7.0,7.0;"/><!--MD5=[4637a1bdf7c0c2286b376aea8ab82e4f]
link viewmodel to controllers--><path codeLine="23" d="M557.09,255.14 C562.26,268.265 570.92,290.2375 578.3812,309.1688 C580.2466,313.9016 582.037,318.4443 583.6792,322.6112 C583.8844,323.1321 584.0874,323.647 584.2879,324.1558 C584.338,324.283 584.388,324.4098 584.4378,324.5362 " fill="none" id="viewmodel-controllers" style="stroke:#A80036;stroke-width:1.0;stroke-dasharray:7.0,7.0;"/><!--MD5=[d8369fc012dee75e35e30d389bc71422]
link GMN28 to use_cases--><path d="M1211.23,480.89 C1159.32,458.2 1069.01,423.25 987,414 C946.81,409.47 663.19,409.47 623,414 C615.07,414.89 611.14,412.36 605.5,418 C602.3638,421.135 599.7016,424.675 597.4454,428.482 C596.8814,429.4338 596.3427,430.4022 595.8284,431.3852 C595.5712,431.8767 595.3201,432.3718 595.0749,432.8703 C594.9524,433.1196 594.8313,433.3696 594.7117,433.6205 C594.6519,433.746 594.5924,433.8716 594.5333,433.9975 " fill="none" id="GMN28-use_cases" style="stroke:#A80036;stroke-width:1.0;stroke-dasharray:7.0,7.0;"/><!--MD5=[e282445b6e7c6883a9da077aa207e162]
link controllers.ExampleController to use_cases.ExampleInteractor--><path codeLine="31" d="M699.59,370.24 C698.53,397.31 696.77,442.05 695.63,471.27 " fill="none" id="controllers.ExampleController-to-use_cases.ExampleInteractor" style="stroke:#A80036;stroke-width:1.0;"/><polygon fill="#A80036" points="695.42,476.54,699.7775,467.7076,695.6204,471.544,691.784,467.3869,695.42,476.54" style="stroke:#A80036;stroke-width:1.0;"/><!--MD5=[0702db8260acec0e0e23a615f764980d]
link controllers.PlotSampleController to use_cases.LinearFunctionInteractor--><path codeLine="32" d="M890.41,370.24 C891.47,397.31 893.23,442.05 894.37,471.27 " fill="none" id="controllers.PlotSampleController-to-use_cases.LinearFunctionInteractor" style="stroke:#A80036;stroke-width:1.0;"/><polygon fill="#A80036" points="894.58,476.54,898.216,467.3869,894.3796,471.544,890.2225,467.7076,894.58,476.54" style="stroke:#A80036;stroke-width:1.0;"/><!--MD5=[e14bb30301df89d83632e75bfd1c2ae9]
link business_logic to GMN35--><path d="M223.4321,728.2907 C223.3928,728.4187 223.3534,728.5471 223.3139,728.6757 C222.6824,730.7331 222.0311,732.8552 221.3663,735.0212 C216.0475,752.35 209.865,772.495 206.07,784.87 " fill="none" id="business_logic-GMN35" style="stroke:#A80036;stroke-width:1.0;stroke-dasharray:7.0,7.0;"/><!--MD5=[1f4e4e9c5f768e3948ec5379972c38f7]
link use_cases.ExampleInteractor to business_logic.ExampleBusinessLogic--><path codeLine="38" d="M693.31,525.01 C690.76,549.7 682.84,588.29 658.5,610 C645.62,621.49 637.21,613.69 620.5,618 C554.3,635.06 480.03,658.1 426.5,675.41 " fill="none" id="use_cases.ExampleInteractor-to-business_logic.ExampleBusinessLogic" style="stroke:#A80036;stroke-width:1.0;"/><polygon fill="#A80036" points="421.71,676.96,431.505,677.9883,426.4661,675.4175,429.037,670.3786,421.71,676.96" style="stroke:#A80036;stroke-width:1.0;"/><!--MD5=[19c8a9b6f08e8a7d27e2ce4aa22d6fa8]
link use_cases to enitity--><path codeLine="41" d="M578.4865,504.1354 C578.3116,504.182 578.134,504.2292 577.9538,504.2772 C577.2328,504.469 576.4695,504.6721 575.6651,504.8862 C569.2301,506.5986 560.1661,509.011 549.1166,511.952 C527.0175,517.8341 496.9763,525.8306 464.14,534.5713 C398.4675,552.0525 321.615,572.51 274.76,584.98 " fill="none" id="use_cases-enitity" style="stroke:#A80036;stroke-width:1.0;stroke-dasharray:7.0,7.0;"/><!--MD5=[8c91a2f745b1366378b38f2015d2cf6c]
link enitity to business_logic--><path codeLine="42" d="M231.5,610.14 C231.5,613.4213 231.5,617.2555 231.5,621.4569 C231.5,623.5576 231.5,625.7501 231.5,628.0112 C231.5,629.1418 231.5,630.2895 231.5,631.4514 C231.5,632.0324 231.5,632.6169 231.5,633.2046 C231.5,633.3516 231.5,633.4987 231.5,633.646 " fill="none" id="enitity-business_logic" style="stroke:#A80036;stroke-width:1.0;stroke-dasharray:7.0,7.0;"/><!--MD5=[008c57e3e8204ca218d4155323f5f837]
link repositories to GMN45--><path d="M650.6907,749.3214 C651.2276,751.0856 651.7664,752.8517 652.3043,754.6105 C653.3802,758.1281 654.4525,761.6163 655.5,765 C657.54,771.58 659.86,778.91 661.76,784.84 " fill="none" id="repositories-GMN45" style="stroke:#A80036;stroke-width:1.0;stroke-dasharray:7.0,7.0;"/><!--MD5=[073738b9daf69a33918224a8d9668ed4]
link use_cases.ExampleInteractor to repositories.ExampleRepository--><path codeLine="49" d="M702.29,525.11 C707.74,541.68 715,564.59 720.5,585 C728.41,614.4 735.91,648.46 740.8,671.84 " fill="none" id="use_cases.ExampleInteractor-to-repositories.ExampleRepository" style="stroke:#A80036;stroke-width:1.0;"/><polygon fill="#A80036" points="741.86,676.96,743.9258,667.3302,740.8328,672.0666,736.0964,668.9737,741.86,676.96" style="stroke:#A80036;stroke-width:1.0;"/><!--MD5=[b0918cb36098a3e6065f8726301d0f0d]
link use_cases.LinearFunctionInteractor to repositories.PlotDataRepository--><path codeLine="50" d="M899.82,525.1 C906.62,561.52 919.83,632.17 927.2,671.62 " fill="none" id="use_cases.LinearFunctionInteractor-to-repositories.PlotDataRepository" style="stroke:#A80036;stroke-width:1.0;"/><polygon fill="#A80036" points="928.15,676.74,930.4145,667.155,927.2243,671.8264,922.5528,668.6362,928.15,676.74" style="stroke:#A80036;stroke-width:1.0;"/><!--MD5=[035a92a783769acb11301678c399f43f]
link use_cases to dto--><path codeLine="53" d="M578.3843,514.7809 C577.8748,515.5833 577.3468,516.4148 576.802,517.2728 C575.7123,518.9888 574.5554,520.8108 573.3443,522.7181 C570.922,526.5329 568.2831,530.6891 565.5325,535.0213 C554.53,552.35 541.74,572.495 533.88,584.87 " fill="none" id="use_cases-dto" style="stroke:#A80036;stroke-width:1.0;stroke-dasharray:7.0,7.0;"/><!--MD5=[30425e8b440634c9bf201b35154bd003]
link dto to repositories--><path codeLine="54" d="M539.12,610.14 C553.34,623.265 577.1525,645.2375 597.67,664.1688 C607.9288,673.6344 617.3638,682.3397 624.3641,688.7986 C625.2391,689.606 626.0761,690.3782 626.8719,691.1125 C627.2698,691.4796 627.6574,691.8372 628.0343,692.185 C628.1286,692.2719 628.2221,692.3583 628.315,692.444 " fill="none" id="dto-repositories" style="stroke:#A80036;stroke-width:1.0;stroke-dasharray:7.0,7.0;"/><!--MD5=[d9040180b204c8c67aff0da392dd176b]
@startuml class-diagram
class app
note right of app: アプリ起動のために実行するモジュール
namespace views {
  class ExampleView
  class PlotSampleView
}
note left of views: 画面のデザインを担当

app - -> views.ExampleView
app - -> views.PlotSampleView

namespace controllers {
  class ExampleController
  class PlotSampleController
}
note left of controllers: ユースケースへのデータの入力，ユースケースから表示データの取得を担当

views.ExampleView - -> controllers.ExampleController
views.PlotSampleView - -> controllers.PlotSampleController

note "ここでのデータのやり取りはViewModelを介して行う" as viewmodel
views .. viewmodel
viewmodel .. controllers

namespace use_cases {
  class ExampleInteractor
  class LinearFunctionInteractor
}
note left of use_cases: ビジネスユースケースを担当，ソフトウェアで何ができるかを表現する\nビジネスロジックやリポジトリを組み合わせて表現する

controllers.ExampleController - -> use_cases.ExampleInteractor
controllers.PlotSampleController - -> use_cases.LinearFunctionInteractor

namespace business_logic {
  class ExampleBusinessLogic
}
note bottom of business_logic: ビジネスロジック, アルゴリズムを表現するオブジェクトが所属
use_cases.ExampleInteractor - -> business_logic.ExampleBusinessLogic

note "複雑なデータはEntityと表現し受け渡しを行う" as enitity
use_cases .. enitity
enitity .. business_logic

namespace repositories {
  class ExampleRepository
  class PlotDataRepository
}
note bottom of repositories: 外部とのデータのやり取り，ユースケースにデータを渡すための加工を担当
use_cases.ExampleInteractor - -> repositories.ExampleRepository
use_cases.LinearFunctionInteractor - -> repositories.PlotDataRepository

note "受け渡しのデータはDTOと表現する" as dto
use_cases .. dto
dto .. repositories

@enduml

PlantUML version 1.2021.7(Sun May 23 21:40:07 JST 2021)
(GPL source distribution)
Java Runtime: OpenJDK Runtime Environment
JVM: OpenJDK 64-Bit Server VM
Default Encoding: UTF-8
Language: en
Country: null
--></g></svg>